# xmcd CD database file
#
# Track frame offsets:
#	150
#	23585
#	41628
#	59380
#	83770
#	104661
#	131910
#	153607
#	175341
#	196167
#	215881
#	255466
#
# Disc length: 3940 seconds
#
# Revision: 0
# Processed by: cddbd v1.5.2PL0 Copyright (c) Steve Scherf et al.
# Submitted via: CDex 1.51
#
DISCID=ab0f620c
DTITLE=VA - NTR: Jazzism Jazzdag - CD2
DYEAR=2015
DGENRE=Jazz
TTITLE0=Square Orange - The Core (Live)
TTITLE1=Nanko - Chop Groover
TTITLE2=Kern Koppen - Me Eigen
TTITLE3=CaboCubaJazz - Rikeza Y Valor
TTITLE4=Torque - Forward
TTITLE5=Clazz Ensemble - Johnny Carlson's Bigband
TTITLE6=Martin Fondse and Wolfert Brederode - Mould
TTITLE7=Nadine Nix Asempa - The Pigeon
TTITLE8=Tin Men And The Telephone - De Bal
TTITLE9=Jasper Somsen Group - En Li Milin  (No More Words)
TTITLE10=AsGuests with Strings - Sunset Boulevard
TTITLE11=Iman Spaargaren Septet - Contemplation
EXTD=YEAR: 2015
EXTT0=
EXTT1=
EXTT2=
EXTT3=
EXTT4=
EXTT5=
EXTT6=
EXTT7=
EXTT8=
EXTT9=
EXTT10=
EXTT11=
PLAYORDER=
